<svg width="105" height="24" viewBox="0 0 105 24" fill="none" xmlns="http://www.w3.org/2000/svg">
<path d="M6.82872 2.6C8.84872 2.6 10.3787 3.47 11.4187 5.21C12.4587 6.95 12.9787 9.54 12.9787 12.98C12.9787 16.46 12.4587 19.07 11.4187 20.81C10.3787 22.53 8.84872 23.39 6.82872 23.39C4.78872 23.39 3.24872 22.52 2.20872 20.78C1.16872 19.04 0.648718 16.44 0.648718 12.98C0.648718 6.06 2.70872 2.6 6.82872 2.6ZM6.82872 4.7C5.66872 4.7 4.80872 5.34 4.24872 6.62C3.70872 7.88 3.43872 10 3.43872 12.98C3.43872 15.98 3.70872 18.11 4.24872 19.37C4.80872 20.63 5.66872 21.26 6.82872 21.26C7.96872 21.26 8.80872 20.63 9.34872 19.37C9.90872 18.11 10.1887 15.98 10.1887 12.98C10.1887 9.98 9.91872 7.85 9.37872 6.59C8.83872 5.33 7.98872 4.7 6.82872 4.7ZM22.6861 14.54L27.5461 23H24.5761L21.0361 16.16L17.5261 23H14.6461L19.5061 14.66L15.1861 7.22H18.1261L21.0961 13.1L24.0661 7.22H26.9161L22.6861 14.54ZM36.1488 2.93V23H33.4788V5.75L29.3088 8.57L28.0788 6.77L33.7788 2.93H36.1488ZM48.4083 1.97C49.4883 1.97 50.4282 2.14 51.2282 2.48C52.0283 2.8 52.8183 3.31 53.5983 4.01L52.1583 5.69C51.5782 5.19 50.9982 4.82 50.4183 4.58C49.8583 4.34 49.2383 4.22 48.5583 4.22C46.9982 4.22 45.7582 4.89 44.8382 6.23C43.9182 7.55 43.4582 9.69 43.4582 12.65C43.4582 15.53 43.9182 17.66 44.8382 19.04C45.7582 20.4 46.9982 21.08 48.5583 21.08C49.3383 21.08 50.0083 20.94 50.5683 20.66C51.1283 20.38 51.7382 19.97 52.3982 19.43L53.8083 21.08C52.3083 22.62 50.5082 23.39 48.4083 23.39C46.8683 23.39 45.4982 22.99 44.2982 22.19C43.1182 21.39 42.1882 20.19 41.5082 18.59C40.8482 16.97 40.5182 14.99 40.5182 12.65C40.5182 10.33 40.8582 8.37 41.5382 6.77C42.2382 5.17 43.1782 3.97 44.3582 3.17C45.5582 2.37 46.9082 1.97 48.4083 1.97ZM74.26 0.829999V23H71.86L71.68 20.93C70.66 22.57 69.29 23.39 67.57 23.39C65.85 23.39 64.51 22.66 63.55 21.2C62.61 19.74 62.14 17.73 62.14 15.17C62.14 13.51 62.37 12.05 62.83 10.79C63.31 9.53 63.98 8.56 64.84 7.88C65.7 7.18 66.69 6.83 67.81 6.83C69.31 6.83 70.56 7.46 71.56 8.72V0.53L74.26 0.829999ZM68.2 21.26C68.92 21.26 69.54 21.06 70.06 20.66C70.6 20.26 71.1 19.67 71.56 18.89V10.97C70.66 9.63 69.61 8.96 68.41 8.96C67.35 8.96 66.51 9.47 65.89 10.49C65.27 11.51 64.97 13.05 64.99 15.11C64.99 17.21 65.27 18.76 65.83 19.76C66.39 20.76 67.18 21.26 68.2 21.26ZM90.194 14.63C90.194 15.05 90.174 15.52 90.134 16.04H80.954C81.034 17.88 81.404 19.21 82.064 20.03C82.724 20.83 83.624 21.23 84.764 21.23C85.484 21.23 86.124 21.12 86.684 20.9C87.264 20.68 87.864 20.32 88.484 19.82L89.684 21.41C88.204 22.73 86.524 23.39 84.644 23.39C82.584 23.39 80.984 22.68 79.844 21.26C78.724 19.82 78.164 17.81 78.164 15.23C78.164 12.65 78.704 10.61 79.784 9.11C80.864 7.59 82.364 6.83 84.284 6.83C86.184 6.83 87.644 7.51 88.664 8.87C89.684 10.21 90.194 12.13 90.194 14.63ZM87.584 13.82C87.584 10.52 86.494 8.87 84.314 8.87C83.314 8.87 82.524 9.29 81.944 10.13C81.364 10.95 81.034 12.29 80.954 14.15H87.584V13.82ZM104.481 7.22L99.7711 23H96.5311L91.6711 7.22H94.4911L98.1511 20.72L101.781 7.22H104.481Z" fill="white"/>
<path d="M57.4026 19.58C57.9626 19.58 58.4126 19.77 58.7526 20.15C59.1126 20.51 59.2926 20.95 59.2926 21.47C59.2926 21.99 59.1126 22.44 58.7526 22.82C58.4126 23.2 57.9626 23.39 57.4026 23.39C56.8626 23.39 56.4126 23.2 56.0526 22.82C55.7126 22.44 55.5426 21.99 55.5426 21.47C55.5426 20.95 55.7126 20.51 56.0526 20.15C56.4126 19.77 56.8626 19.58 57.4026 19.58Z" fill="#EB6D71"/>
</svg>
